# xmcd
#
# Track frame offsets:
#	150
#	12820
#	28158
#	40803
#
# Disc length: 746 seconds
#
# Revision: 0
# Processed by: cddbd v1.5.2PL0 Copyright (c) Steve Scherf et al.
# Submitted via: audiograbber 1.83.01
#
DISCID=2602e804
DTITLE=Feldberger - Über nacht hat's geschneit
DYEAR=2000
DGENRE=Volkamusik
TTITLE0=Über nacht hat's geschneit
TTITLE1=Denk an den Morgen
TTITLE2=Über nacht hat's geschneit (Karaoke)
TTITLE3=Denk an den Morgen (Karaoke)
EXTD=<http://www.hit-radio24.de>
EXTT0=
EXTT1=
EXTT2=
EXTT3=
PLAYORDER=
